<svg xmlns="http://www.w3.org/2000/svg" fill="none" viewBox="0 0 116 116">
  <path fill="#FDF5F5" d="M116 58A58 58 0 1 1 0 58a58 58 0 0 1 116 0Z"/>
  <path fill="#D60000" d="m58.95 39.91-1.67 1.11a2 2 0 0 0 3.33 0l-1.66-1.1Zm0 60.09-1.42 1.42a2 2 0 0 0 2.82 0l-1.4-1.42ZM37.4 42.77a2 2 0 0 0-.98-3.88l.98 3.88Zm-10.65 6a2 2 0 1 0 3.93.7l-3.93-.7ZM60.6 38.8C53.15 27.66 41.7 25 32.1 28.35 22.6 31.67 15 40.88 15 53.05h4c0-10.4 6.44-18.13 14.43-20.92 7.91-2.76 17.43-.7 23.85 8.9l3.33-2.23ZM15 53.06c0 4.91 2.74 10.2 6.46 15.2 3.77 5.07 8.8 10.18 13.87 14.81a266.48 266.48 0 0 0 14.36 12.1l5.22 4.09a41.29 41.29 0 0 1 2.62 2.16l2.83-2.84a42.16 42.16 0 0 0-2.97-2.46l-5.22-4.1a262.65 262.65 0 0 1-14.14-11.9c-4.99-4.55-9.8-9.47-13.36-14.25-3.6-4.85-5.67-9.24-5.67-12.81h-4Zm45.35 48.36c.35-.35 1.21-1.06 2.58-2.18l5.02-4.1c3.93-3.25 8.87-7.46 13.71-12.1 4.83-4.63 9.62-9.75 13.2-14.82C98.41 63.2 101 57.94 101 53.06h-4c0 3.6-1.98 8-5.4 12.85-3.38 4.78-7.96 9.7-12.7 14.24-4.74 4.55-9.6 8.68-13.5 11.9-1.96 1.62-3.66 3-5 4.09a50.44 50.44 0 0 0-2.86 2.44l2.81 2.84ZM101 53.06c0-12.02-7.04-21.25-16.12-24.63-9.19-3.42-20.16-.73-27.6 10.37l3.33 2.22c6.46-9.63 15.51-11.58 22.88-8.84C90.96 34.96 97 42.66 97 53.06h4ZM36.42 38.89a14.6 14.6 0 0 0-5.4 2.8 11.8 11.8 0 0 0-4.27 7.07l3.93.71a7.81 7.81 0 0 1 2.88-4.68 10.64 10.64 0 0 1 3.84-2.02l-.98-3.88Z"/>
</svg>